<mxfile host="app.diagrams.net" modified="2023-07-01T07:50:26.412Z" agent="Mozilla/5.0 (Macintosh; Intel Mac OS X 10_15_7) AppleWebKit/537.36 (KHTML, like Gecko) Chrome/109.0.0.0 Safari/537.36" version="21.5.2" etag="aipUZu1ENo5csZHckbsy" type="github">
  <diagram name="Page-1" id="Vabpkd6pNowNMzGRkyw9">
    <mxGraphModel>
      <root>
        <mxCell id="0" />
        <mxCell id="1" parent="0" />
      </root>
    </mxGraphModel>
  </diagram>
</mxfile>
